<mxfile host="app.diagrams.net" modified="2023-10-18T18:23:20.571Z" agent="Mozilla/5.0 (X11; Linux x86_64; rv:109.0) Gecko/20100101 Firefox/114.0" etag="MnfT27SG394S4acKPHnl" version="22.0.4" type="github">
  <diagram name="Página-1" id="yfjVUfVhYDTBQP2p-WS-">
    <mxGraphModel dx="2514" dy="885" grid="1" gridSize="10" guides="1" tooltips="1" connect="1" arrows="1" fold="1" page="1" pageScale="1" pageWidth="827" pageHeight="1169" math="0" shadow="0">
      <root>
        <mxCell id="0" />
        <mxCell id="1" parent="0" />
        <mxCell id="PHRZv5qzURQsRLBW7Qzx-33" style="rounded=0;orthogonalLoop=1;jettySize=auto;html=1;entryX=0.5;entryY=1;entryDx=0;entryDy=0;endArrow=none;endFill=0;exitX=0.5;exitY=0;exitDx=0;exitDy=0;" edge="1" parent="1" source="PHRZv5qzURQsRLBW7Qzx-1" target="PHRZv5qzURQsRLBW7Qzx-11">
          <mxGeometry relative="1" as="geometry" />
        </mxCell>
        <mxCell id="PHRZv5qzURQsRLBW7Qzx-1" value="empresa" style="whiteSpace=wrap;html=1;align=center;fillColor=#dae8fc;strokeColor=#6c8ebf;" vertex="1" parent="1">
          <mxGeometry x="348" y="245" width="100" height="40" as="geometry" />
        </mxCell>
        <mxCell id="PHRZv5qzURQsRLBW7Qzx-30" style="edgeStyle=orthogonalEdgeStyle;rounded=0;orthogonalLoop=1;jettySize=auto;html=1;endArrow=none;endFill=0;" edge="1" parent="1" source="PHRZv5qzURQsRLBW7Qzx-2" target="PHRZv5qzURQsRLBW7Qzx-3">
          <mxGeometry relative="1" as="geometry" />
        </mxCell>
        <mxCell id="PHRZv5qzURQsRLBW7Qzx-2" value="" style="ellipse;whiteSpace=wrap;html=1;fillColor=#f8cecc;strokeColor=#b85450;" vertex="1" parent="1">
          <mxGeometry x="383" y="295" width="30" height="20" as="geometry" />
        </mxCell>
        <mxCell id="PHRZv5qzURQsRLBW7Qzx-24" style="rounded=0;orthogonalLoop=1;jettySize=auto;html=1;entryX=0.5;entryY=0;entryDx=0;entryDy=0;endArrow=none;endFill=0;" edge="1" parent="1" source="PHRZv5qzURQsRLBW7Qzx-3" target="PHRZv5qzURQsRLBW7Qzx-4">
          <mxGeometry relative="1" as="geometry" />
        </mxCell>
        <mxCell id="PHRZv5qzURQsRLBW7Qzx-25" style="rounded=0;orthogonalLoop=1;jettySize=auto;html=1;entryX=0.5;entryY=0;entryDx=0;entryDy=0;endArrow=none;endFill=0;" edge="1" parent="1" source="PHRZv5qzURQsRLBW7Qzx-3" target="PHRZv5qzURQsRLBW7Qzx-5">
          <mxGeometry relative="1" as="geometry" />
        </mxCell>
        <mxCell id="PHRZv5qzURQsRLBW7Qzx-3" value="" style="triangle;whiteSpace=wrap;html=1;rotation=90;fillColor=#f8cecc;strokeColor=#b85450;" vertex="1" parent="1">
          <mxGeometry x="368" y="280" width="60" height="160" as="geometry" />
        </mxCell>
        <mxCell id="PHRZv5qzURQsRLBW7Qzx-26" style="rounded=0;orthogonalLoop=1;jettySize=auto;html=1;endArrow=none;endFill=0;" edge="1" parent="1" source="PHRZv5qzURQsRLBW7Qzx-4" target="PHRZv5qzURQsRLBW7Qzx-23">
          <mxGeometry relative="1" as="geometry" />
        </mxCell>
        <mxCell id="PHRZv5qzURQsRLBW7Qzx-4" value="cliente" style="whiteSpace=wrap;html=1;align=center;fillColor=#dae8fc;strokeColor=#6c8ebf;" vertex="1" parent="1">
          <mxGeometry x="108" y="525" width="100" height="40" as="geometry" />
        </mxCell>
        <mxCell id="PHRZv5qzURQsRLBW7Qzx-27" style="rounded=0;orthogonalLoop=1;jettySize=auto;html=1;entryX=0.5;entryY=0;entryDx=0;entryDy=0;endArrow=none;endFill=0;" edge="1" parent="1" source="PHRZv5qzURQsRLBW7Qzx-5" target="PHRZv5qzURQsRLBW7Qzx-22">
          <mxGeometry relative="1" as="geometry" />
        </mxCell>
        <mxCell id="PHRZv5qzURQsRLBW7Qzx-5" value="proveedora" style="whiteSpace=wrap;html=1;align=center;fillColor=#dae8fc;strokeColor=#6c8ebf;" vertex="1" parent="1">
          <mxGeometry x="578" y="525" width="100" height="40" as="geometry" />
        </mxCell>
        <mxCell id="PHRZv5qzURQsRLBW7Qzx-6" value="" style="endArrow=none;html=1;curved=1;" edge="1" parent="1">
          <mxGeometry relative="1" as="geometry">
            <mxPoint x="318" y="385" as="sourcePoint" />
            <mxPoint x="478" y="385" as="targetPoint" />
            <Array as="points">
              <mxPoint x="398" y="425" />
            </Array>
          </mxGeometry>
        </mxCell>
        <mxCell id="PHRZv5qzURQsRLBW7Qzx-35" style="rounded=0;orthogonalLoop=1;jettySize=auto;html=1;endArrow=none;endFill=0;" edge="1" parent="1" source="PHRZv5qzURQsRLBW7Qzx-7">
          <mxGeometry relative="1" as="geometry">
            <mxPoint x="398" y="245" as="targetPoint" />
          </mxGeometry>
        </mxCell>
        <mxCell id="PHRZv5qzURQsRLBW7Qzx-7" value="NIF" style="ellipse;whiteSpace=wrap;html=1;align=center;fontStyle=4;fillColor=#ffe6cc;strokeColor=#d79b00;" vertex="1" parent="1">
          <mxGeometry x="428" y="125" width="100" height="40" as="geometry" />
        </mxCell>
        <mxCell id="PHRZv5qzURQsRLBW7Qzx-36" style="rounded=0;orthogonalLoop=1;jettySize=auto;html=1;endArrow=none;endFill=0;" edge="1" parent="1" source="PHRZv5qzURQsRLBW7Qzx-8">
          <mxGeometry relative="1" as="geometry">
            <mxPoint x="398" y="245" as="targetPoint" />
          </mxGeometry>
        </mxCell>
        <mxCell id="PHRZv5qzURQsRLBW7Qzx-8" value="dirección" style="ellipse;whiteSpace=wrap;html=1;align=center;fillColor=#ffe6cc;strokeColor=#d79b00;" vertex="1" parent="1">
          <mxGeometry x="508" y="165" width="100" height="40" as="geometry" />
        </mxCell>
        <mxCell id="PHRZv5qzURQsRLBW7Qzx-34" value="" style="rounded=0;orthogonalLoop=1;jettySize=auto;html=1;endArrow=none;endFill=0;" edge="1" parent="1" source="PHRZv5qzURQsRLBW7Qzx-9">
          <mxGeometry relative="1" as="geometry">
            <mxPoint x="398" y="245" as="targetPoint" />
          </mxGeometry>
        </mxCell>
        <mxCell id="PHRZv5qzURQsRLBW7Qzx-9" value="población" style="ellipse;whiteSpace=wrap;html=1;align=center;fillColor=#ffe6cc;strokeColor=#d79b00;" vertex="1" parent="1">
          <mxGeometry x="308" y="125" width="100" height="40" as="geometry" />
        </mxCell>
        <mxCell id="PHRZv5qzURQsRLBW7Qzx-11" value="fax" style="ellipse;whiteSpace=wrap;html=1;align=center;fillColor=#ffe6cc;strokeColor=#d79b00;" vertex="1" parent="1">
          <mxGeometry x="208" y="155" width="100" height="40" as="geometry" />
        </mxCell>
        <mxCell id="PHRZv5qzURQsRLBW7Qzx-37" style="rounded=0;orthogonalLoop=1;jettySize=auto;html=1;entryX=0;entryY=0.5;entryDx=0;entryDy=0;endArrow=none;endFill=0;" edge="1" parent="1" source="PHRZv5qzURQsRLBW7Qzx-12" target="PHRZv5qzURQsRLBW7Qzx-4">
          <mxGeometry relative="1" as="geometry" />
        </mxCell>
        <mxCell id="PHRZv5qzURQsRLBW7Qzx-12" value="provincia" style="ellipse;whiteSpace=wrap;html=1;align=center;fillColor=#ffe6cc;strokeColor=#d79b00;" vertex="1" parent="1">
          <mxGeometry x="-52" y="465" width="100" height="40" as="geometry" />
        </mxCell>
        <mxCell id="PHRZv5qzURQsRLBW7Qzx-38" value="" style="rounded=0;orthogonalLoop=1;jettySize=auto;html=1;endArrow=none;endFill=0;" edge="1" parent="1" source="PHRZv5qzURQsRLBW7Qzx-13" target="PHRZv5qzURQsRLBW7Qzx-4">
          <mxGeometry relative="1" as="geometry" />
        </mxCell>
        <mxCell id="PHRZv5qzURQsRLBW7Qzx-13" value="comunidad autónoma" style="ellipse;whiteSpace=wrap;html=1;align=center;fillColor=#ffe6cc;strokeColor=#d79b00;" vertex="1" parent="1">
          <mxGeometry x="-52" y="525" width="100" height="40" as="geometry" />
        </mxCell>
        <mxCell id="PHRZv5qzURQsRLBW7Qzx-39" style="rounded=0;orthogonalLoop=1;jettySize=auto;html=1;entryX=0;entryY=0.5;entryDx=0;entryDy=0;endArrow=none;endFill=0;" edge="1" parent="1" source="PHRZv5qzURQsRLBW7Qzx-14" target="PHRZv5qzURQsRLBW7Qzx-4">
          <mxGeometry relative="1" as="geometry" />
        </mxCell>
        <mxCell id="PHRZv5qzURQsRLBW7Qzx-14" value="portes" style="ellipse;whiteSpace=wrap;html=1;align=center;fillColor=#ffe6cc;strokeColor=#d79b00;" vertex="1" parent="1">
          <mxGeometry x="-52" y="585" width="100" height="40" as="geometry" />
        </mxCell>
        <mxCell id="PHRZv5qzURQsRLBW7Qzx-41" value="" style="edgeStyle=orthogonalEdgeStyle;rounded=0;orthogonalLoop=1;jettySize=auto;html=1;endArrow=none;endFill=0;" edge="1" parent="1" source="PHRZv5qzURQsRLBW7Qzx-15" target="PHRZv5qzURQsRLBW7Qzx-5">
          <mxGeometry relative="1" as="geometry" />
        </mxCell>
        <mxCell id="PHRZv5qzURQsRLBW7Qzx-15" value="país" style="ellipse;whiteSpace=wrap;html=1;align=center;fillColor=#ffe6cc;strokeColor=#d79b00;" vertex="1" parent="1">
          <mxGeometry x="778" y="525" width="100" height="40" as="geometry" />
        </mxCell>
        <mxCell id="PHRZv5qzURQsRLBW7Qzx-42" style="rounded=0;orthogonalLoop=1;jettySize=auto;html=1;entryX=1;entryY=0.5;entryDx=0;entryDy=0;endArrow=none;endFill=0;" edge="1" parent="1" source="PHRZv5qzURQsRLBW7Qzx-16" target="PHRZv5qzURQsRLBW7Qzx-5">
          <mxGeometry relative="1" as="geometry" />
        </mxCell>
        <mxCell id="PHRZv5qzURQsRLBW7Qzx-16" value="nombre contacto" style="ellipse;whiteSpace=wrap;html=1;align=center;fillColor=#ffe6cc;strokeColor=#d79b00;" vertex="1" parent="1">
          <mxGeometry x="778" y="585" width="100" height="40" as="geometry" />
        </mxCell>
        <mxCell id="PHRZv5qzURQsRLBW7Qzx-40" style="rounded=0;orthogonalLoop=1;jettySize=auto;html=1;entryX=1;entryY=0.5;entryDx=0;entryDy=0;endArrow=none;endFill=0;" edge="1" parent="1" source="PHRZv5qzURQsRLBW7Qzx-17" target="PHRZv5qzURQsRLBW7Qzx-5">
          <mxGeometry relative="1" as="geometry" />
        </mxCell>
        <mxCell id="PHRZv5qzURQsRLBW7Qzx-17" value="CIF internacional" style="ellipse;whiteSpace=wrap;html=1;align=center;fontStyle=4;fillColor=#ffe6cc;strokeColor=#d79b00;" vertex="1" parent="1">
          <mxGeometry x="768" y="465" width="100" height="40" as="geometry" />
        </mxCell>
        <mxCell id="PHRZv5qzURQsRLBW7Qzx-18" value="producto" style="whiteSpace=wrap;html=1;align=center;fillColor=#dae8fc;strokeColor=#6c8ebf;" vertex="1" parent="1">
          <mxGeometry x="348" y="885" width="100" height="40" as="geometry" />
        </mxCell>
        <mxCell id="PHRZv5qzURQsRLBW7Qzx-45" value="" style="rounded=0;orthogonalLoop=1;jettySize=auto;html=1;endArrow=none;endFill=0;entryX=0.5;entryY=1;entryDx=0;entryDy=0;" edge="1" parent="1" source="PHRZv5qzURQsRLBW7Qzx-19" target="PHRZv5qzURQsRLBW7Qzx-18">
          <mxGeometry relative="1" as="geometry" />
        </mxCell>
        <mxCell id="PHRZv5qzURQsRLBW7Qzx-19" value="código" style="ellipse;whiteSpace=wrap;html=1;align=center;fontStyle=4;fillColor=#ffe6cc;strokeColor=#d79b00;" vertex="1" parent="1">
          <mxGeometry x="238" y="940" width="100" height="40" as="geometry" />
        </mxCell>
        <mxCell id="PHRZv5qzURQsRLBW7Qzx-46" style="rounded=0;orthogonalLoop=1;jettySize=auto;html=1;endArrow=none;endFill=0;entryX=0.5;entryY=1;entryDx=0;entryDy=0;" edge="1" parent="1" source="PHRZv5qzURQsRLBW7Qzx-20" target="PHRZv5qzURQsRLBW7Qzx-18">
          <mxGeometry relative="1" as="geometry" />
        </mxCell>
        <mxCell id="PHRZv5qzURQsRLBW7Qzx-20" value="descripción" style="ellipse;whiteSpace=wrap;html=1;align=center;fillColor=#ffe6cc;strokeColor=#d79b00;" vertex="1" parent="1">
          <mxGeometry x="348" y="980" width="100" height="40" as="geometry" />
        </mxCell>
        <mxCell id="PHRZv5qzURQsRLBW7Qzx-47" style="rounded=0;orthogonalLoop=1;jettySize=auto;html=1;entryX=0.5;entryY=1;entryDx=0;entryDy=0;endArrow=none;endFill=0;" edge="1" parent="1" source="PHRZv5qzURQsRLBW7Qzx-21" target="PHRZv5qzURQsRLBW7Qzx-18">
          <mxGeometry relative="1" as="geometry" />
        </mxCell>
        <mxCell id="PHRZv5qzURQsRLBW7Qzx-21" value="precio de coste" style="ellipse;whiteSpace=wrap;html=1;align=center;fillColor=#ffe6cc;strokeColor=#d79b00;" vertex="1" parent="1">
          <mxGeometry x="460" y="940" width="100" height="40" as="geometry" />
        </mxCell>
        <mxCell id="PHRZv5qzURQsRLBW7Qzx-29" style="rounded=0;orthogonalLoop=1;jettySize=auto;html=1;endArrow=none;endFill=0;" edge="1" parent="1" source="PHRZv5qzURQsRLBW7Qzx-22" target="PHRZv5qzURQsRLBW7Qzx-18">
          <mxGeometry relative="1" as="geometry" />
        </mxCell>
        <mxCell id="PHRZv5qzURQsRLBW7Qzx-22" value="provee" style="shape=rhombus;perimeter=rhombusPerimeter;whiteSpace=wrap;html=1;align=center;fillColor=#f8cecc;strokeColor=#b85450;" vertex="1" parent="1">
          <mxGeometry x="478" y="695" width="120" height="60" as="geometry" />
        </mxCell>
        <mxCell id="PHRZv5qzURQsRLBW7Qzx-28" style="rounded=0;orthogonalLoop=1;jettySize=auto;html=1;endArrow=none;endFill=0;" edge="1" parent="1" source="PHRZv5qzURQsRLBW7Qzx-23" target="PHRZv5qzURQsRLBW7Qzx-18">
          <mxGeometry relative="1" as="geometry" />
        </mxCell>
        <mxCell id="PHRZv5qzURQsRLBW7Qzx-23" value="compra" style="shape=rhombus;perimeter=rhombusPerimeter;whiteSpace=wrap;html=1;align=center;fillColor=#f8cecc;strokeColor=#b85450;" vertex="1" parent="1">
          <mxGeometry x="228" y="695" width="120" height="60" as="geometry" />
        </mxCell>
        <mxCell id="PHRZv5qzURQsRLBW7Qzx-49" style="edgeStyle=orthogonalEdgeStyle;rounded=0;orthogonalLoop=1;jettySize=auto;html=1;entryX=0.5;entryY=0;entryDx=0;entryDy=0;endArrow=none;endFill=0;" edge="1" parent="1" source="PHRZv5qzURQsRLBW7Qzx-48" target="PHRZv5qzURQsRLBW7Qzx-3">
          <mxGeometry relative="1" as="geometry" />
        </mxCell>
        <mxCell id="PHRZv5qzURQsRLBW7Qzx-48" value="tipo" style="ellipse;whiteSpace=wrap;html=1;align=center;fillColor=#ffe6cc;strokeColor=#d79b00;" vertex="1" parent="1">
          <mxGeometry x="538" y="345" width="50" height="30" as="geometry" />
        </mxCell>
        <mxCell id="PHRZv5qzURQsRLBW7Qzx-56" value="1:1" style="text;html=1;strokeColor=none;fillColor=none;align=center;verticalAlign=middle;whiteSpace=wrap;rounded=0;" vertex="1" parent="1">
          <mxGeometry x="448" y="840" width="60" height="30" as="geometry" />
        </mxCell>
        <mxCell id="PHRZv5qzURQsRLBW7Qzx-57" value="1:1" style="text;html=1;strokeColor=none;fillColor=none;align=center;verticalAlign=middle;whiteSpace=wrap;rounded=0;" vertex="1" parent="1">
          <mxGeometry x="598" y="585" width="60" height="30" as="geometry" />
        </mxCell>
        <mxCell id="PHRZv5qzURQsRLBW7Qzx-63" style="rounded=0;orthogonalLoop=1;jettySize=auto;html=1;endArrow=none;endFill=0;entryX=0;entryY=0.5;entryDx=0;entryDy=0;" edge="1" parent="1" source="PHRZv5qzURQsRLBW7Qzx-59" target="PHRZv5qzURQsRLBW7Qzx-23">
          <mxGeometry relative="1" as="geometry" />
        </mxCell>
        <mxCell id="PHRZv5qzURQsRLBW7Qzx-59" value="fecha" style="ellipse;whiteSpace=wrap;html=1;align=center;fillColor=#ffe6cc;strokeColor=#d79b00;" vertex="1" parent="1">
          <mxGeometry x="108" y="680" width="100" height="40" as="geometry" />
        </mxCell>
        <mxCell id="PHRZv5qzURQsRLBW7Qzx-64" style="rounded=0;orthogonalLoop=1;jettySize=auto;html=1;entryX=0;entryY=0.5;entryDx=0;entryDy=0;endArrow=none;endFill=0;" edge="1" parent="1" source="PHRZv5qzURQsRLBW7Qzx-60" target="PHRZv5qzURQsRLBW7Qzx-23">
          <mxGeometry relative="1" as="geometry" />
        </mxCell>
        <mxCell id="PHRZv5qzURQsRLBW7Qzx-60" value="cantidad" style="ellipse;whiteSpace=wrap;html=1;align=center;fillColor=#ffe6cc;strokeColor=#d79b00;" vertex="1" parent="1">
          <mxGeometry x="108" y="740" width="100" height="40" as="geometry" />
        </mxCell>
        <mxCell id="PHRZv5qzURQsRLBW7Qzx-65" value="" style="rounded=0;orthogonalLoop=1;jettySize=auto;html=1;endArrow=none;endFill=0;entryX=1;entryY=0.5;entryDx=0;entryDy=0;" edge="1" parent="1" source="PHRZv5qzURQsRLBW7Qzx-61" target="PHRZv5qzURQsRLBW7Qzx-22">
          <mxGeometry relative="1" as="geometry" />
        </mxCell>
        <mxCell id="PHRZv5qzURQsRLBW7Qzx-61" value="fecha" style="ellipse;whiteSpace=wrap;html=1;align=center;fillColor=#ffe6cc;strokeColor=#d79b00;" vertex="1" parent="1">
          <mxGeometry x="658" y="680" width="100" height="40" as="geometry" />
        </mxCell>
        <mxCell id="PHRZv5qzURQsRLBW7Qzx-66" style="rounded=0;orthogonalLoop=1;jettySize=auto;html=1;entryX=1;entryY=0.5;entryDx=0;entryDy=0;endArrow=none;endFill=0;" edge="1" parent="1" source="PHRZv5qzURQsRLBW7Qzx-62" target="PHRZv5qzURQsRLBW7Qzx-22">
          <mxGeometry relative="1" as="geometry" />
        </mxCell>
        <mxCell id="PHRZv5qzURQsRLBW7Qzx-62" value="cantidad" style="ellipse;whiteSpace=wrap;html=1;align=center;fillColor=#ffe6cc;strokeColor=#d79b00;" vertex="1" parent="1">
          <mxGeometry x="658" y="730" width="100" height="40" as="geometry" />
        </mxCell>
        <mxCell id="PHRZv5qzURQsRLBW7Qzx-67" value="1:1" style="text;html=1;strokeColor=none;fillColor=none;align=center;verticalAlign=middle;whiteSpace=wrap;rounded=0;" vertex="1" parent="1">
          <mxGeometry x="560" y="695" width="60" height="30" as="geometry" />
        </mxCell>
        <mxCell id="PHRZv5qzURQsRLBW7Qzx-68" value="1:1" style="text;html=1;strokeColor=none;fillColor=none;align=center;verticalAlign=middle;whiteSpace=wrap;rounded=0;" vertex="1" parent="1">
          <mxGeometry x="408" y="295" width="60" height="30" as="geometry" />
        </mxCell>
        <mxCell id="PHRZv5qzURQsRLBW7Qzx-69" value="0:1" style="text;html=1;strokeColor=none;fillColor=none;align=center;verticalAlign=middle;whiteSpace=wrap;rounded=0;" vertex="1" parent="1">
          <mxGeometry x="200" y="435" width="60" height="30" as="geometry" />
        </mxCell>
        <mxCell id="PHRZv5qzURQsRLBW7Qzx-70" value="0:1" style="text;html=1;strokeColor=none;fillColor=none;align=center;verticalAlign=middle;whiteSpace=wrap;rounded=0;" vertex="1" parent="1">
          <mxGeometry x="538" y="435" width="60" height="30" as="geometry" />
        </mxCell>
        <mxCell id="PHRZv5qzURQsRLBW7Qzx-75" value="0:N" style="text;html=1;strokeColor=none;fillColor=none;align=center;verticalAlign=middle;whiteSpace=wrap;rounded=0;" vertex="1" parent="1">
          <mxGeometry x="323" y="760" width="60" height="30" as="geometry" />
        </mxCell>
        <mxCell id="PHRZv5qzURQsRLBW7Qzx-76" value="1:N" style="text;html=1;strokeColor=none;fillColor=none;align=center;verticalAlign=middle;whiteSpace=wrap;rounded=0;" vertex="1" parent="1">
          <mxGeometry x="220" y="600" width="60" height="30" as="geometry" />
        </mxCell>
        <mxCell id="PHRZv5qzURQsRLBW7Qzx-77" value="N:M" style="text;html=1;strokeColor=none;fillColor=none;align=center;verticalAlign=middle;whiteSpace=wrap;rounded=0;" vertex="1" parent="1">
          <mxGeometry x="208" y="685" width="60" height="30" as="geometry" />
        </mxCell>
        <mxCell id="PHRZv5qzURQsRLBW7Qzx-81" style="rounded=0;orthogonalLoop=1;jettySize=auto;html=1;endArrow=none;endFill=0;" edge="1" parent="1" source="PHRZv5qzURQsRLBW7Qzx-80" target="PHRZv5qzURQsRLBW7Qzx-4">
          <mxGeometry relative="1" as="geometry" />
        </mxCell>
        <mxCell id="PHRZv5qzURQsRLBW7Qzx-82" style="rounded=0;orthogonalLoop=1;jettySize=auto;html=1;entryX=0;entryY=0.5;entryDx=0;entryDy=0;endArrow=none;endFill=0;" edge="1" parent="1" source="PHRZv5qzURQsRLBW7Qzx-80" target="PHRZv5qzURQsRLBW7Qzx-18">
          <mxGeometry relative="1" as="geometry" />
        </mxCell>
        <mxCell id="PHRZv5qzURQsRLBW7Qzx-80" value="demanda" style="shape=rhombus;perimeter=rhombusPerimeter;whiteSpace=wrap;html=1;align=center;fillColor=#f8cecc;strokeColor=#b85450;" vertex="1" parent="1">
          <mxGeometry x="-72" y="760" width="120" height="60" as="geometry" />
        </mxCell>
        <mxCell id="PHRZv5qzURQsRLBW7Qzx-85" style="rounded=0;orthogonalLoop=1;jettySize=auto;html=1;entryX=0;entryY=1;entryDx=0;entryDy=0;endArrow=none;endFill=0;" edge="1" parent="1" source="PHRZv5qzURQsRLBW7Qzx-84" target="PHRZv5qzURQsRLBW7Qzx-80">
          <mxGeometry relative="1" as="geometry" />
        </mxCell>
        <mxCell id="PHRZv5qzURQsRLBW7Qzx-84" value="&lt;div&gt;porcentaje recargo&lt;/div&gt;" style="ellipse;whiteSpace=wrap;html=1;align=center;fillColor=#ffe6cc;strokeColor=#d79b00;" vertex="1" parent="1">
          <mxGeometry x="-140" y="810" width="100" height="40" as="geometry" />
        </mxCell>
        <mxCell id="PHRZv5qzURQsRLBW7Qzx-86" value="1:N" style="text;html=1;strokeColor=none;fillColor=none;align=center;verticalAlign=middle;whiteSpace=wrap;rounded=0;" vertex="1" parent="1">
          <mxGeometry x="240" y="885" width="60" height="30" as="geometry" />
        </mxCell>
        <mxCell id="PHRZv5qzURQsRLBW7Qzx-87" value="1:N" style="text;html=1;strokeColor=none;fillColor=none;align=center;verticalAlign=middle;whiteSpace=wrap;rounded=0;" vertex="1" parent="1">
          <mxGeometry x="30" y="640" width="60" height="30" as="geometry" />
        </mxCell>
        <mxCell id="PHRZv5qzURQsRLBW7Qzx-88" value="N:M" style="text;html=1;strokeColor=none;fillColor=none;align=center;verticalAlign=middle;whiteSpace=wrap;rounded=0;" vertex="1" parent="1">
          <mxGeometry x="-120" y="775" width="60" height="30" as="geometry" />
        </mxCell>
      </root>
    </mxGraphModel>
  </diagram>
</mxfile>
